# xmcd
#
# Track frame offsets:
#	150
#	17587
#	33754
#	52813
#	75373
#	92871
#	117280
#	135100
#	153798
#	174499
#	197259
#	220939
#
# Disc length: 4440 seconds
#
# Revision: 1
# Processed by: cddbd v1.5.2PL0 Copyright (c) Steve Scherf et al.
# Submitted via: audiograbber 1.83.01
#
DISCID=7e11560c
DTITLE=Minnie Driver - Everything I've got in my pocket
DYEAR=2004
DGENRE=Pop
TTITLE0=Everything I've got in my pocket
TTITLE1=Invisible girl
TTITLE2=Fast as you can
TTITLE3=Wire
TTITLE4=Home
TTITLE5=Deeper water
TTITLE6=So well
TTITLE7=Hungry heart
TTITLE8=Down
TTITLE9=Yellow eyes
TTITLE10=Ruby Adeline
TTITLE11=Kopierschutz
EXTD=
EXTT0=
EXTT1=
EXTT2=
EXTT3=
EXTT4=
EXTT5=
EXTT6=
EXTT7=
EXTT8=
EXTT9=
EXTT10=
EXTT11=
PLAYORDER=
